<svg width="41" height="42" viewBox="0 0 41 42" fill="none" xmlns="http://www.w3.org/2000/svg">
<g filter="url(#filter0_d_545_6)">
<path d="M24.1175 17.3995L36.4453 5.07445C36.7844 4.73517 36.9715 4.28253 36.972 3.79988C36.972 3.31695 36.7849 2.86377 36.4453 2.52503L35.365 1.44528C35.0254 1.1052 34.5726 0.918945 34.0893 0.918945C33.6068 0.918945 33.154 1.1052 32.8144 1.44528L20.4866 13.7695L8.15823 1.44528C7.81913 1.1052 7.3661 0.918945 6.88304 0.918945C6.40053 0.918945 5.9475 1.1052 5.60839 1.44528L4.52755 2.52503C3.82415 3.22825 3.82415 4.37204 4.52755 5.07445L16.8556 17.3995L4.52755 29.724C4.18818 30.0638 4.00134 30.5164 4.00134 30.9991C4.00134 31.4817 4.18818 31.9344 4.52755 32.2739L5.60812 33.3537C5.94723 33.6935 6.40053 33.88 6.88278 33.88C7.36583 33.88 7.81886 33.6935 8.15796 33.3537L20.4863 21.0292L32.8141 33.3537C33.1537 33.6935 33.6065 33.88 34.089 33.88H34.0895C34.5723 33.88 35.0251 33.6935 35.3647 33.3537L36.445 32.2739C36.7841 31.9346 36.9712 31.4817 36.9712 30.9991C36.9712 30.5164 36.7841 30.0638 36.445 29.7242L24.1175 17.3995Z" fill="#675C53"/>
<path d="M23.4103 17.3995L23.764 17.0459L36.0917 4.72099C36.3365 4.47597 36.4716 4.15052 36.472 3.79939L23.4103 17.3995ZM23.4103 17.3995L23.764 17.7531M23.4103 17.3995L23.764 17.7531M23.764 17.7531L36.0912 30.0775C36.0913 30.0776 36.0913 30.0776 36.0913 30.0776C36.3363 30.323 36.4712 30.6484 36.4712 30.9991C36.4712 31.3498 36.3363 31.6753 36.0916 31.9203L23.764 17.7531ZM36.0922 2.87905L36.0918 2.87868L35.0115 1.79893L35.0112 1.79861C34.7664 1.55345 34.4413 1.41895 34.0893 1.41895C33.7382 1.41895 33.4131 1.55336 33.1681 1.79861L33.1679 1.79889L20.8401 14.1231L20.4866 14.4765L20.1331 14.1231L7.80474 1.7989L7.80417 1.79833C7.56006 1.55351 7.23493 1.41895 6.88304 1.41895C6.53178 1.41895 6.20662 1.55346 5.96246 1.79833L5.96177 1.79902L5.96177 1.79902L4.88106 2.87863C4.88101 2.87867 4.88097 2.87872 4.88093 2.87876C4.37287 3.38683 4.3732 4.21371 4.88086 4.72065L4.88106 4.72086L17.2091 17.0459L17.5628 17.3995L17.2091 17.7531L4.88134 30.0773L36.0922 2.87905ZM36.0922 2.87905C36.3368 3.12304 36.4719 3.44828 36.472 3.79932L36.0922 2.87905ZM5.96154 33L5.96205 33.0005C6.20636 33.2453 6.53191 33.38 6.88278 33.38C7.23449 33.38 7.55975 33.2453 7.80404 33.0005L7.80446 33L20.1328 20.6756L20.4863 20.3222L20.8398 20.6756L33.1676 33.0001L33.1677 33.0002C33.4128 33.2454 33.7381 33.38 34.089 33.38H34.0895C34.4408 33.38 34.766 33.2454 35.0111 33.0002L35.0113 33L36.0914 31.9205L5.96154 33ZM5.96154 33L4.8812 31.9205L5.96154 33ZM4.50134 30.9991C4.50134 30.6484 4.63598 30.3231 4.88105 30.0776L4.88097 31.9202C4.63602 31.675 4.50134 31.3499 4.50134 30.9991Z" stroke="black"/>
</g>
<defs>
<filter id="filter0_d_545_6" x="0" y="0.918945" width="40.9722" height="40.9611" filterUnits="userSpaceOnUse" color-interpolation-filters="sRGB">
<feFlood flood-opacity="0" result="BackgroundImageFix"/>
<feColorMatrix in="SourceAlpha" type="matrix" values="0 0 0 0 0 0 0 0 0 0 0 0 0 0 0 0 0 0 127 0" result="hardAlpha"/>
<feOffset dy="4"/>
<feGaussianBlur stdDeviation="2"/>
<feComposite in2="hardAlpha" operator="out"/>
<feColorMatrix type="matrix" values="0 0 0 0 0 0 0 0 0 0 0 0 0 0 0 0 0 0 0.25 0"/>
<feBlend mode="normal" in2="BackgroundImageFix" result="effect1_dropShadow_545_6"/>
<feBlend mode="normal" in="SourceGraphic" in2="effect1_dropShadow_545_6" result="shape"/>
</filter>
</defs>
</svg>
